<mxfile host="Electron" agent="Mozilla/5.0 (Windows NT 10.0; Win64; x64) AppleWebKit/537.36 (KHTML, like Gecko) draw.io/28.0.6 Chrome/138.0.7204.100 Electron/37.2.3 Safari/537.36" version="28.0.6">
  <diagram name="Data Architecture" id="3RlfeeTjbd4i68GigPmP">
    <mxGraphModel dx="1226" dy="736" grid="1" gridSize="10" guides="1" tooltips="1" connect="1" arrows="1" fold="1" page="1" pageScale="1" pageWidth="850" pageHeight="1100" math="0" shadow="0">
      <root>
        <mxCell id="0" />
        <mxCell id="1" parent="0" />
        <mxCell id="efslZOeXqWPRnVPR6dNU-1" value="&lt;b&gt;&lt;font style=&quot;font-size: 24px;&quot;&gt;High Level Architecture&lt;/font&gt;&lt;/b&gt;" style="text;html=1;align=center;verticalAlign=middle;whiteSpace=wrap;rounded=0;" vertex="1" parent="1">
          <mxGeometry x="20" y="20" width="340" height="30" as="geometry" />
        </mxCell>
        <mxCell id="efslZOeXqWPRnVPR6dNU-2" value="" style="rounded=0;whiteSpace=wrap;html=1;dashed=1;strokeColor=light-dark(#999494, #ededed);" vertex="1" parent="1">
          <mxGeometry x="80" y="120" width="150" height="470" as="geometry" />
        </mxCell>
        <mxCell id="efslZOeXqWPRnVPR6dNU-3" value="&lt;font style=&quot;font-size: 24px;&quot;&gt;Sources&lt;/font&gt;" style="rounded=0;whiteSpace=wrap;html=1;strokeColor=none;" vertex="1" parent="1">
          <mxGeometry x="105" y="100" width="70" height="30" as="geometry" />
        </mxCell>
        <mxCell id="efslZOeXqWPRnVPR6dNU-5" value="" style="rounded=0;whiteSpace=wrap;html=1;dashed=1;strokeColor=light-dark(#000000,#EDEDED);" vertex="1" parent="1">
          <mxGeometry x="280" y="120" width="570" height="470" as="geometry" />
        </mxCell>
        <mxCell id="efslZOeXqWPRnVPR6dNU-6" value="&lt;span style=&quot;font-size: 24px;&quot;&gt;Data Warehouse&lt;/span&gt;" style="rounded=0;whiteSpace=wrap;html=1;strokeColor=none;" vertex="1" parent="1">
          <mxGeometry x="425" y="100" width="230" height="20" as="geometry" />
        </mxCell>
        <mxCell id="efslZOeXqWPRnVPR6dNU-7" value="" style="rounded=0;whiteSpace=wrap;html=1;dashed=1;strokeColor=light-dark(#999494, #ededed);" vertex="1" parent="1">
          <mxGeometry x="930" y="120" width="160" height="470" as="geometry" />
        </mxCell>
        <mxCell id="efslZOeXqWPRnVPR6dNU-8" value="&lt;span style=&quot;font-size: 24px;&quot;&gt;Consume&lt;/span&gt;" style="rounded=0;whiteSpace=wrap;html=1;strokeColor=none;" vertex="1" parent="1">
          <mxGeometry x="959" y="100" width="120" height="30" as="geometry" />
        </mxCell>
        <mxCell id="efslZOeXqWPRnVPR6dNU-9" value="" style="rounded=0;whiteSpace=wrap;html=1;strokeColor=light-dark(#FFB570,#EDEDED);" vertex="1" parent="1">
          <mxGeometry x="320" y="170" width="160" height="400" as="geometry" />
        </mxCell>
        <mxCell id="efslZOeXqWPRnVPR6dNU-10" value="&lt;b&gt;Bronze&amp;nbsp;&lt;/b&gt;" style="rounded=0;whiteSpace=wrap;html=1;fontSize=24;fillColor=#FFB570;strokeColor=#FFD966;" vertex="1" parent="1">
          <mxGeometry x="310" y="130" width="160" height="30" as="geometry" />
        </mxCell>
        <mxCell id="efslZOeXqWPRnVPR6dNU-14" value="" style="rounded=0;whiteSpace=wrap;html=1;strokeColor=light-dark(#E1D5E7,#EDEDED);" vertex="1" parent="1">
          <mxGeometry x="495" y="170" width="160" height="400" as="geometry" />
        </mxCell>
        <mxCell id="efslZOeXqWPRnVPR6dNU-15" value="&lt;b&gt;Silver&amp;nbsp;&lt;/b&gt;" style="rounded=0;whiteSpace=wrap;html=1;fontSize=24;fillColor=#f5f5f5;strokeColor=#E6E6E6;fontColor=#333333;" vertex="1" parent="1">
          <mxGeometry x="495" y="130" width="160" height="30" as="geometry" />
        </mxCell>
        <mxCell id="efslZOeXqWPRnVPR6dNU-16" value="" style="rounded=0;whiteSpace=wrap;html=1;strokeColor=light-dark(#FFE599,#EDEDED);" vertex="1" parent="1">
          <mxGeometry x="670" y="170" width="160" height="400" as="geometry" />
        </mxCell>
        <mxCell id="efslZOeXqWPRnVPR6dNU-17" value="&lt;b&gt;Gold&lt;/b&gt;" style="rounded=0;whiteSpace=wrap;html=1;fontSize=24;fillColor=#FFD966;strokeColor=#FFE599;fontColor=#333333;" vertex="1" parent="1">
          <mxGeometry x="670" y="130" width="160" height="30" as="geometry" />
        </mxCell>
        <mxCell id="efslZOeXqWPRnVPR6dNU-18" value="CRM" style="image;aspect=fixed;html=1;points=[];align=center;fontSize=12;image=img/lib/azure2/general/Folder_Blank.svg;" vertex="1" parent="1">
          <mxGeometry x="110" y="188" width="69" height="56.00000000000001" as="geometry" />
        </mxCell>
        <mxCell id="efslZOeXqWPRnVPR6dNU-19" value="" style="whiteSpace=wrap;html=1;shape=mxgraph.basic.document" vertex="1" parent="1">
          <mxGeometry x="160" y="228" width="20" height="20" as="geometry" />
        </mxCell>
        <mxCell id="efslZOeXqWPRnVPR6dNU-25" value="ERP" style="image;aspect=fixed;html=1;points=[];align=center;fontSize=12;image=img/lib/azure2/general/Folder_Blank.svg;" vertex="1" parent="1">
          <mxGeometry x="108" y="326" width="69" height="56.00000000000001" as="geometry" />
        </mxCell>
        <mxCell id="efslZOeXqWPRnVPR6dNU-31" value="" style="endArrow=none;html=1;rounded=0;" edge="1" parent="1">
          <mxGeometry width="50" height="50" relative="1" as="geometry">
            <mxPoint x="100" y="410" as="sourcePoint" />
            <mxPoint x="200" y="410" as="targetPoint" />
          </mxGeometry>
        </mxCell>
        <mxCell id="efslZOeXqWPRnVPR6dNU-32" value="&lt;b&gt;Object&lt;/b&gt; Type: CSV&amp;nbsp;&lt;br&gt;&lt;br&gt;&lt;b&gt;Interface: &lt;/b&gt;Files in Folder" style="text;html=1;align=left;verticalAlign=middle;whiteSpace=wrap;rounded=0;" vertex="1" parent="1">
          <mxGeometry x="85" y="420" width="140" height="120" as="geometry" />
        </mxCell>
        <mxCell id="efslZOeXqWPRnVPR6dNU-35" value="Raw Data" style="html=1;verticalLabelPosition=bottom;align=center;labelBackgroundColor=#ffffff;verticalAlign=top;strokeWidth=2;strokeColor=#808080;shadow=0;dashed=0;shape=mxgraph.ios7.icons.data;fillColor=#FFB570;" vertex="1" parent="1">
          <mxGeometry x="370" y="200" width="40" height="50" as="geometry" />
        </mxCell>
        <mxCell id="efslZOeXqWPRnVPR6dNU-36" value="Clean, Standardized Data" style="html=1;verticalLabelPosition=bottom;align=center;labelBackgroundColor=#ffffff;verticalAlign=top;strokeWidth=2;strokeColor=#0080F0;shadow=0;dashed=0;shape=mxgraph.ios7.icons.data;fillColor=#E6E6E6;" vertex="1" parent="1">
          <mxGeometry x="553" y="199.45" width="37" height="48.55" as="geometry" />
        </mxCell>
        <mxCell id="efslZOeXqWPRnVPR6dNU-37" value="Aggregrated, &lt;br&gt;Business-logic applied Data" style="html=1;verticalLabelPosition=bottom;align=center;labelBackgroundColor=#ffffff;verticalAlign=top;strokeWidth=2;strokeColor=#0080F0;shadow=0;dashed=0;shape=mxgraph.ios7.icons.data;fillColor=#FFD966;" vertex="1" parent="1">
          <mxGeometry x="734" y="199.45" width="32" height="48.55" as="geometry" />
        </mxCell>
        <mxCell id="efslZOeXqWPRnVPR6dNU-39" value="" style="shape=singleArrow;whiteSpace=wrap;html=1;" vertex="1" parent="1">
          <mxGeometry x="220" y="190" width="70" height="60" as="geometry" />
        </mxCell>
        <mxCell id="efslZOeXqWPRnVPR6dNU-40" value="" style="shape=singleArrow;whiteSpace=wrap;html=1;" vertex="1" parent="1">
          <mxGeometry x="450" y="184" width="60" height="60" as="geometry" />
        </mxCell>
        <mxCell id="efslZOeXqWPRnVPR6dNU-42" value="" style="shape=singleArrow;whiteSpace=wrap;html=1;" vertex="1" parent="1">
          <mxGeometry x="630" y="186" width="60" height="60" as="geometry" />
        </mxCell>
        <mxCell id="efslZOeXqWPRnVPR6dNU-45" value="" style="shape=singleArrow;whiteSpace=wrap;html=1;" vertex="1" parent="1">
          <mxGeometry x="850" y="194" width="80" height="50" as="geometry" />
        </mxCell>
        <mxCell id="efslZOeXqWPRnVPR6dNU-49" value="" style="endArrow=none;html=1;rounded=0;startSize=6;strokeWidth=1;jumpSize=6;targetPerimeterSpacing=1;" edge="1" parent="1">
          <mxGeometry width="50" height="50" relative="1" as="geometry">
            <mxPoint x="350" y="290" as="sourcePoint" />
            <mxPoint x="450" y="290" as="targetPoint" />
          </mxGeometry>
        </mxCell>
        <mxCell id="efslZOeXqWPRnVPR6dNU-51" value="" style="endArrow=none;html=1;rounded=0;startSize=6;strokeWidth=1;jumpSize=6;targetPerimeterSpacing=1;" edge="1" parent="1">
          <mxGeometry width="50" height="50" relative="1" as="geometry">
            <mxPoint x="525" y="290" as="sourcePoint" />
            <mxPoint x="625" y="290" as="targetPoint" />
          </mxGeometry>
        </mxCell>
        <mxCell id="efslZOeXqWPRnVPR6dNU-54" value="Object Type : Table&lt;div&gt;&lt;br&gt;&lt;/div&gt;&lt;div&gt;&lt;b&gt;Extract:&lt;/b&gt;&lt;/div&gt;&lt;div&gt;- Pull Extraction&lt;/div&gt;&lt;div&gt;&lt;br&gt;&lt;/div&gt;&lt;div&gt;&lt;b&gt;Load:&amp;nbsp;&lt;/b&gt;&lt;/div&gt;&lt;div&gt;- Type: Batch Process&lt;/div&gt;&lt;div&gt;- Method: Full Load (Truncate &amp;amp; Insert)&lt;/div&gt;&lt;div&gt;&lt;div&gt;&lt;br&gt;&lt;/div&gt;&lt;div&gt;&lt;b&gt;SCD:&lt;/b&gt;&lt;/div&gt;&lt;div&gt;- SCD1: Overwrite&lt;/div&gt;&lt;/div&gt;&lt;div&gt;&lt;br&gt;&lt;/div&gt;&lt;div&gt;&lt;b&gt;Transformation:&amp;nbsp;&lt;/b&gt;&lt;br&gt;- No transform (as-is)&lt;/div&gt;&lt;div&gt;&lt;br&gt;&lt;/div&gt;&lt;div&gt;-&lt;b&gt; Modelling:&lt;/b&gt; None (as-is)&lt;/div&gt;&lt;div&gt;&lt;br&gt;&lt;/div&gt;&lt;div&gt;&lt;br&gt;&lt;/div&gt;" style="text;html=1;align=left;verticalAlign=middle;whiteSpace=wrap;rounded=0;" vertex="1" parent="1">
          <mxGeometry x="330" y="290" width="140" height="270" as="geometry" />
        </mxCell>
        <mxCell id="efslZOeXqWPRnVPR6dNU-55" value="Object Type : Table&lt;div&gt;&lt;br&gt;&lt;/div&gt;&lt;div&gt;&lt;b&gt;Extract&lt;/b&gt;:&lt;/div&gt;&lt;div&gt;- Push from Bronze&lt;/div&gt;&lt;div&gt;&lt;br&gt;&lt;/div&gt;&lt;div&gt;&lt;b&gt;Load:&amp;nbsp;&lt;/b&gt;&lt;/div&gt;&lt;div&gt;- Type: Batch Process&lt;/div&gt;&lt;div&gt;- Method: Full Load (Truncate &amp;amp; Insert)&lt;/div&gt;&lt;div&gt;&lt;br&gt;&lt;/div&gt;&lt;div&gt;&lt;br&gt;&lt;/div&gt;&lt;div&gt;&lt;b&gt;Transformation:&lt;/b&gt;&amp;nbsp;&lt;br&gt;- Data Enrichment&lt;/div&gt;&lt;div&gt;- Normalization &amp;amp;standard&lt;/div&gt;&lt;div&gt;- Derived Columns&lt;/div&gt;&lt;div&gt;- Data Cleansing&lt;/div&gt;&lt;div&gt;&lt;br&gt;&lt;/div&gt;&lt;div&gt;- Modelling: None (as-is)&lt;/div&gt;&lt;div&gt;&lt;br&gt;&lt;/div&gt;&lt;div&gt;&lt;br&gt;&lt;/div&gt;&lt;div&gt;&lt;br&gt;&lt;/div&gt;" style="text;html=1;align=left;verticalAlign=middle;whiteSpace=wrap;rounded=0;" vertex="1" parent="1">
          <mxGeometry x="500" y="320" width="155" height="250" as="geometry" />
        </mxCell>
        <mxCell id="efslZOeXqWPRnVPR6dNU-56" value="Object Type : Views&lt;div&gt;&lt;br&gt;&lt;/div&gt;&lt;div&gt;&lt;b&gt;Extract&lt;/b&gt;:&lt;/div&gt;&lt;div&gt;- Push from Silver&lt;br&gt;&lt;div&gt;&lt;br&gt;&lt;div&gt;&lt;b&gt;Load&lt;/b&gt;:&amp;nbsp;&lt;/div&gt;&lt;div&gt;- Type: Batch Process&lt;/div&gt;&lt;div&gt;- Method: Full Load (Truncate &amp;amp; Insert)&lt;/div&gt;&lt;div&gt;&lt;br&gt;&lt;/div&gt;&lt;div&gt;&lt;b&gt;Transformation&lt;/b&gt;:&amp;nbsp;&lt;br&gt;- Aggregations&lt;/div&gt;&lt;div&gt;- Business Rules &amp;amp; Logic&lt;/div&gt;&lt;div&gt;&lt;br&gt;&lt;/div&gt;&lt;div&gt;Modelling:&amp;nbsp;&lt;/div&gt;&lt;div&gt;- Star Schema&lt;/div&gt;&lt;div&gt;- Flat Table&lt;/div&gt;&lt;div&gt;- Aggregated Table&amp;nbsp;&lt;/div&gt;&lt;div&gt;&lt;br&gt;&lt;/div&gt;&lt;div&gt;&lt;br&gt;&lt;/div&gt;&lt;/div&gt;&lt;/div&gt;" style="text;html=1;align=left;verticalAlign=middle;whiteSpace=wrap;rounded=0;" vertex="1" parent="1">
          <mxGeometry x="670" y="310" width="160" height="260" as="geometry" />
        </mxCell>
        <mxCell id="efslZOeXqWPRnVPR6dNU-58" value="" style="endArrow=none;html=1;rounded=0;startSize=6;strokeWidth=1;jumpSize=6;targetPerimeterSpacing=1;" edge="1" parent="1">
          <mxGeometry width="50" height="50" relative="1" as="geometry">
            <mxPoint x="700" y="291" as="sourcePoint" />
            <mxPoint x="800" y="291" as="targetPoint" />
          </mxGeometry>
        </mxCell>
        <mxCell id="efslZOeXqWPRnVPR6dNU-59" value="BI &amp;amp; Reporting&lt;br&gt;&lt;br&gt;&lt;br&gt;&lt;div&gt;- AD-hoc queries&lt;/div&gt;&lt;div&gt;&lt;br&gt;&lt;/div&gt;&lt;div&gt;- Machine Learning&lt;/div&gt;" style="text;html=1;align=center;verticalAlign=middle;whiteSpace=wrap;rounded=0;" vertex="1" parent="1">
          <mxGeometry x="980" y="188" width="60" height="232" as="geometry" />
        </mxCell>
        <mxCell id="efslZOeXqWPRnVPR6dNU-61" value="Microsoft SQL Server" style="image;sketch=0;aspect=fixed;html=1;points=[];align=center;fontSize=12;image=img/lib/mscae/dep/SQL_Server_Stretch_DB.svg;" vertex="1" parent="1">
          <mxGeometry x="310" y="70" width="30" height="30" as="geometry" />
        </mxCell>
      </root>
    </mxGraphModel>
  </diagram>
</mxfile>
